<svg width="18" height="22" fill="none" xmlns="http://www.w3.org/2000/svg"><path d="M17.712 18.142l-.983-12.38a1.547 1.547 0 00-1.536-1.422h-1.94v-.087A4.257 4.257 0 009 0a4.257 4.257 0 00-4.252 4.253v.087H2.807c-.8 0-1.474.625-1.535 1.42L.289 18.145a3.593 3.593 0 00.943 2.708A3.593 3.593 0 003.86 22h10.28c.994 0 1.952-.418 2.628-1.148a3.594 3.594 0 00.944-2.71zM6.036 4.252A2.967 2.967 0 019 1.29a2.967 2.967 0 012.964 2.964v.087H6.036v-.087zm9.787 15.724a2.27 2.27 0 01-1.683.735H3.86a2.27 2.27 0 01-1.682-.735 2.269 2.269 0 01-.604-1.732l.982-12.383c.01-.13.12-.233.251-.233h1.94v1.587a.644.644 0 001.29 0V5.628h5.927v1.587a.644.644 0 001.289 0V5.628h1.94c.131 0 .241.102.251.234l.983 12.38a2.27 2.27 0 01-.604 1.734z" fill="#fff"/></svg>