<svg width="33" height="33" fill="none" xmlns="http://www.w3.org/2000/svg"><path fill-rule="evenodd" clip-rule="evenodd" d="M2.23 2.225A7.387 7.387 0 00.584 4.753C.195 5.735 0 6.817 0 8h2.865a5.724 5.724 0 01.377-1.988 4.932 4.932 0 011.07-1.674 4.913 4.913 0 011.632-1.09 5.343 5.343 0 012.071-.394H12V0H8.015C6.83 0 5.745.195 4.762.583A7.394 7.394 0 002.23 2.225zM.584 28.247C.195 27.266 0 26.183 0 25h2.865c.014.712.137 1.375.377 1.989a4.92 4.92 0 001.07 1.674 4.918 4.918 0 001.632 1.09c.63.262 1.321.392 2.071.392H12V33H8.015c-1.186 0-2.27-.194-3.253-.583a7.41 7.41 0 01-2.533-1.641 7.385 7.385 0 01-1.644-2.529zm30.186 2.529a7.38 7.38 0 001.644-2.529c.39-.981.585-2.064.585-3.247h-2.865a5.736 5.736 0 01-.377 1.989 4.934 4.934 0 01-1.07 1.674 4.918 4.918 0 01-1.632 1.09 5.356 5.356 0 01-2.072.392H21V33h3.985c1.186 0 2.27-.194 3.252-.583a7.414 7.414 0 002.534-1.641zm1.644-26.023C32.805 5.735 33 6.817 33 8h-2.865a5.732 5.732 0 00-.377-1.988 4.931 4.931 0 00-1.07-1.674 4.913 4.913 0 00-1.632-1.09 5.345 5.345 0 00-2.072-.394H21V0h3.985c1.186 0 2.27.195 3.252.583.984.39 1.829.938 2.534 1.642a7.381 7.381 0 011.644 2.528z" fill="red"/><path fill="red" d="M11 11h11v11H11z"/></svg>