<svg xmlns="http://www.w3.org/2000/svg" width="46" height="46" fill="none"><path fill="red" fill-rule="evenodd" d="M45.415 41.247a7.368 7.368 0 01-1.644 2.529 7.422 7.422 0 01-2.534 1.641c-.982.39-2.066.583-3.253.583H34v-2.855h3.984c.75 0 1.442-.13 2.072-.392a4.92 4.92 0 001.632-1.09 4.93 4.93 0 001.07-1.674c.24-.613.362-1.277.377-1.989H46c0 1.183-.196 2.266-.585 3.247z" clip-rule="evenodd"/><path fill="red" d="M0 38c0 1.183.196 2.266.585 3.247a7.383 7.383 0 001.644 2.529 7.427 7.427 0 002.533 1.641c.983.39 2.067.583 3.253.583H12v-2.855H8.015c-.75 0-1.441-.13-2.071-.392a4.92 4.92 0 01-1.632-1.09 4.93 4.93 0 01-1.07-1.674A5.723 5.723 0 012.865 38H0zM2.23 2.225A7.364 7.364 0 00.584 4.753C.195 5.735 0 6.817 0 8h2.865a5.718 5.718 0 01.377-1.988 4.911 4.911 0 011.07-1.674 4.896 4.896 0 011.632-1.09 5.344 5.344 0 012.071-.394H12V0H8.015C6.83 0 5.745.195 4.762.583a7.4 7.4 0 00-2.533 1.642zM46 8c0-1.183-.196-2.265-.585-3.247a7.383 7.383 0 00-1.644-2.528A7.41 7.41 0 0041.237.583C40.255.195 39.171 0 37.984 0H34v2.854h3.984c.75 0 1.442.132 2.072.394.63.262 1.174.625 1.632 1.09a4.911 4.911 0 011.07 1.674A5.74 5.74 0 0143.135 8H46z"/></svg>