<svg width="273" height="273" fill="none" xmlns="http://www.w3.org/2000/svg"><path fill-rule="evenodd" clip-rule="evenodd" d="M272.415 268.247a7.383 7.383 0 01-1.644 2.529 7.407 7.407 0 01-2.534 1.641c-.982.389-2.066.583-3.253.583H261v-2.854h3.984c.75 0 1.442-.131 2.072-.393a4.91 4.91 0 001.632-1.09 4.93 4.93 0 001.07-1.674c.24-.613.362-1.277.377-1.989H273c0 1.183-.196 2.266-.585 3.247z" fill="red"/><path d="M0 265c0 1.183.196 2.266.585 3.247a7.385 7.385 0 001.644 2.529 7.408 7.408 0 002.533 1.641c.983.389 2.067.583 3.253.583H12v-2.854H8.015c-.75 0-1.441-.131-2.071-.393a4.922 4.922 0 01-1.632-1.09 4.943 4.943 0 01-1.07-1.674A5.729 5.729 0 012.865 265H0zM2.23 2.225A7.387 7.387 0 00.584 4.753C.195 5.735 0 6.817 0 8h2.865a5.724 5.724 0 01.377-1.988 4.932 4.932 0 011.07-1.674 4.913 4.913 0 011.632-1.09 5.343 5.343 0 012.071-.394H12V0H8.015C6.83 0 5.745.195 4.762.583A7.394 7.394 0 002.23 2.225zM273 8c0-1.183-.196-2.265-.585-3.247a7.385 7.385 0 00-1.644-2.528 7.394 7.394 0 00-2.534-1.642C267.255.195 266.171 0 264.984 0H261v2.854h3.984c.75 0 1.442.132 2.072.394a4.902 4.902 0 011.632 1.09 4.92 4.92 0 011.07 1.674A5.74 5.74 0 01270.135 8H273z" fill="red"/></svg>