<svg width="24" height="24" fill="none" xmlns="http://www.w3.org/2000/svg"><path fill-rule="evenodd" clip-rule="evenodd" d="M22.2 9.233H1.8v1.2h20.4v-1.2zm0-1.8H1.8V6c0-.11.09-.2.2-.2h20c.11 0 .2.09.2.2v1.433zM24 6a2 2 0 00-2-2H2a2 2 0 00-2 2v12a2 2 0 002 2h20a2 2 0 002-2V6zm-1.8 6.233H1.8V18c0 .11.09.2.2.2h20a.2.2 0 00.2-.2v-5.767z" fill="#BEBFBE"/><circle cx="18" cy="15.75" r=".9" stroke="#BEBFBE" stroke-width="1.2"/><circle cx="19.5" cy="15.75" r=".9" stroke="#BEBFBE" stroke-width="1.2"/></svg>