<svg width="66" height="66" viewBox="0 0 66 66" fill="none" xmlns="http://www.w3.org/2000/svg">
<rect x="0.000854492" width="6" height="6" fill="#C4C4C4"/>
<rect x="0.000854492" y="40" width="6" height="6" fill="#C4C4C4"/>
<rect x="20.0009" width="6" height="6" fill="#C4C4C4"/>
<rect x="20.0009" y="40" width="6" height="6" fill="#C4C4C4"/>
<rect x="40.0009" width="6" height="6" fill="#C4C4C4"/>
<rect x="40.0009" y="40" width="6" height="6" fill="#C4C4C4"/>
<rect x="60.0009" width="6" height="6" fill="#C4C4C4"/>
<rect x="60.0009" y="40" width="6" height="6" fill="#C4C4C4"/>
<rect x="0.000854492" y="20" width="6" height="6" fill="#C4C4C4"/>
<rect x="0.000854492" y="60" width="6" height="6" fill="#C4C4C4"/>
<rect x="20.0009" y="20" width="6" height="6" fill="#C4C4C4"/>
<rect x="20.0009" y="60" width="6" height="6" fill="#C4C4C4"/>
<rect x="40.0009" y="20" width="6" height="6" fill="#C4C4C4"/>
<rect x="40.0009" y="60" width="6" height="6" fill="#C4C4C4"/>
<rect x="60.0009" y="20" width="6" height="6" fill="#C4C4C4"/>
<rect x="60.0009" y="60" width="6" height="6" fill="#C4C4C4"/>
</svg>
