<svg width="18" height="22" viewBox="0 0 18 22" fill="none" xmlns="http://www.w3.org/2000/svg">
<path d="M17.7115 18.1422L16.729 5.7622C16.6678 4.96461 15.9932 4.3398 15.1933 4.3398H13.2527V4.25257C13.2527 1.90768 11.345 0 9.00016 0C6.65527 0 4.74758 1.90768 4.74758 4.25257V4.3398H2.80703C2.00708 4.3398 1.33251 4.96457 1.2715 5.76052L0.288715 18.1439C0.212661 19.1354 0.556626 20.1225 1.23235 20.852C1.90808 21.5815 2.86598 22 3.86041 22H14.1399C15.1342 22 16.0922 21.5816 16.768 20.852C17.4437 20.1224 17.7876 19.1354 17.7115 18.1422ZM6.03622 4.25257C6.03622 2.61826 7.36588 1.28863 9.00016 1.28863C10.6344 1.28863 11.9641 2.6183 11.9641 4.25257V4.3398H6.03622V4.25257ZM15.8225 19.9764C15.3835 20.4503 14.7859 20.7114 14.1399 20.7114H3.86045C3.21437 20.7114 2.61685 20.4503 2.17779 19.9764C1.73878 19.5024 1.5242 18.8866 1.57352 18.2441L2.55622 5.86072C2.56619 5.73044 2.67636 5.62843 2.80703 5.62843H4.74758V7.21548C4.74758 7.57131 5.03607 7.8598 5.3919 7.8598C5.74772 7.8598 6.03622 7.57131 6.03622 7.21548V5.62843H11.9641V7.21548C11.9641 7.57131 12.2526 7.8598 12.6084 7.8598C12.9642 7.8598 13.2527 7.57131 13.2527 7.21548V5.62843H15.1933C15.324 5.62843 15.4341 5.73048 15.4443 5.86244L16.4267 18.2424C16.4762 18.8866 16.2615 19.5024 15.8225 19.9764Z" fill="white"/>
</svg>
