<svg width="33" height="33" viewBox="0 0 33 33" fill="none" xmlns="http://www.w3.org/2000/svg">
<path fill-rule="evenodd" clip-rule="evenodd" d="M2.22926 2.22506C1.52329 2.9298 0.97615 3.77218 0.585073 4.75339C0.195539 5.73523 0 6.81742 0 8H2.86491C2.87941 7.28818 3.00154 6.625 3.2418 6.01201C3.49841 5.36022 3.85494 4.80234 4.31171 4.33775C4.77002 3.87316 5.31346 3.50985 5.94356 3.24784C6.57397 2.98553 7.26545 2.85438 8.01522 2.85438H12V0H8.01522C6.82934 0 5.74463 0.194579 4.76231 0.583434C3.77907 0.97352 2.934 1.52093 2.22926 2.22506ZM0.585073 28.247C0.195539 27.2658 0 26.1828 0 25H2.86491C2.87941 25.7124 3.00154 26.3755 3.2418 26.9888C3.49841 27.6402 3.85494 28.1983 4.31171 28.6629C4.77002 29.1275 5.31346 29.4907 5.94356 29.753C6.57397 30.0147 7.26545 30.1455 8.01522 30.1455H12V33H8.01522C6.82934 33 5.74463 32.8061 4.76231 32.4172C3.77907 32.0269 2.934 31.4792 2.22926 30.776C1.52329 30.0713 0.97615 29.2287 0.585073 28.247ZM30.7707 30.776C31.4767 30.0713 32.0242 29.2287 32.4149 28.247C32.8042 27.2658 33 26.1828 33 25H30.1348C30.12 25.7124 29.9981 26.3755 29.7579 26.9888C29.5016 27.6402 29.1448 28.1983 28.6883 28.6629C28.23 29.1275 27.6865 29.4907 27.0564 29.753C26.426 30.0147 25.7342 30.1455 24.9845 30.1455H21V33H24.9845C26.1707 33 27.2551 32.8061 28.2374 32.4172C29.2206 32.0269 30.0657 31.4792 30.7707 30.776ZM32.4149 4.75339C32.8042 5.73523 33 6.81742 33 8H30.1348C30.12 7.28818 29.9981 6.625 29.7579 6.01201C29.5016 5.36022 29.1448 4.80234 28.6883 4.33775C28.23 3.87316 27.6865 3.50985 27.0564 3.24784C26.426 2.98553 25.7342 2.85438 24.9845 2.85438H21V0H24.9845C26.1707 0 27.2551 0.194579 28.2374 0.583434C29.2206 0.97352 30.0657 1.52093 30.7707 2.22506C31.4767 2.9298 32.0242 3.77218 32.4149 4.75339Z" fill="#FF0000"/>
<rect x="11" y="11" width="11" height="11" fill="#FF0000"/>
</svg>
