<svg xmlns="http://www.w3.org/2000/svg" width="46" height="46" fill="none" viewBox="0 0 46 46">
    <path fill="red" fill-rule="evenodd" d="M45.415 41.247c-.39.982-.938 1.824-1.644 2.529-.705.703-1.55 1.25-2.534 1.641-.982.39-2.066.583-3.253.583H34v-2.855h3.984c.75 0 1.442-.13 2.072-.392.63-.262 1.174-.626 1.632-1.09.457-.465.814-1.023 1.07-1.674.24-.613.362-1.277.377-1.989H46c0 1.183-.196 2.266-.585 3.247z" clip-rule="evenodd"/>
    <path fill="red" d="M0 38c0 1.183.196 2.266.585 3.247.391.982.938 1.824 1.644 2.529.705.703 1.55 1.25 2.533 1.641.983.39 2.067.583 3.253.583H12v-2.855H8.015c-.75 0-1.441-.13-2.071-.392-.63-.262-1.174-.626-1.632-1.09-.457-.465-.814-1.023-1.07-1.674-.24-.613-.363-1.277-.377-1.989H0zM2.23 2.225C1.522 2.93.975 3.772.584 4.753.195 5.735 0 6.817 0 8h2.865c.014-.712.137-1.375.377-1.988.256-.652.613-1.21 1.07-1.674.458-.465 1.001-.828 1.632-1.09.63-.262 1.321-.394 2.071-.394H12V0H8.015C6.83 0 5.745.195 4.762.583c-.983.39-1.828.938-2.533 1.642zM46 8c0-1.183-.196-2.265-.585-3.247-.39-.98-.938-1.823-1.644-2.528-.705-.704-1.55-1.251-2.534-1.642C40.255.195 39.171 0 37.984 0H34v2.854h3.984c.75 0 1.442.132 2.072.394.63.262 1.174.625 1.632 1.09.457.464.814 1.022 1.07 1.674.24.613.362 1.276.377 1.988H46z"/>
</svg>
