<svg width="128" height="128" viewBox="0 0 128 128" fill="none" xmlns="http://www.w3.org/2000/svg">
<path fill-rule="evenodd" clip-rule="evenodd" d="M127.415 123.247C127.024 124.229 126.477 125.071 125.771 125.776C125.066 126.479 124.221 127.027 123.237 127.417C122.255 127.806 121.171 128 119.984 128H116V125.146H119.984C120.734 125.146 121.426 125.015 122.056 124.753C122.687 124.491 123.23 124.127 123.688 123.663C124.145 123.198 124.502 122.64 124.758 121.989C124.998 121.376 125.12 120.712 125.135 120H128C128 121.183 127.804 122.266 127.415 123.247Z" fill="#FF0000"/>
<path d="M0 120C0 121.183 0.195539 122.266 0.585073 123.247C0.97615 124.229 1.52329 125.071 2.22926 125.776C2.934 126.479 3.77907 127.027 4.76231 127.417C5.74463 127.806 6.82934 128 8.01522 128H12V125.146H8.01522C7.26545 125.146 6.57397 125.015 5.94356 124.753C5.31346 124.491 4.77002 124.127 4.31171 123.663C3.85494 123.198 3.49841 122.64 3.2418 121.989C3.00154 121.376 2.87941 120.712 2.86491 120H0Z" fill="#FF0000"/>
<path d="M2.22926 2.22506C1.52329 2.9298 0.97615 3.77218 0.585073 4.75339C0.195539 5.73523 0 6.81742 0 8H2.86491C2.87941 7.28818 3.00154 6.625 3.2418 6.01201C3.49841 5.36022 3.85494 4.80234 4.31171 4.33775C4.77002 3.87316 5.31346 3.50985 5.94356 3.24784C6.57397 2.98553 7.26545 2.85438 8.01522 2.85438H12V0H8.01522C6.82934 0 5.74463 0.194579 4.76231 0.583434C3.77907 0.97352 2.934 1.52093 2.22926 2.22506Z" fill="#FF0000"/>
<path d="M128 8C128 6.81742 127.804 5.73523 127.415 4.75339C127.024 3.77218 126.477 2.9298 125.771 2.22506C125.066 1.52093 124.221 0.97352 123.237 0.583434C122.255 0.194579 121.171 0 119.984 0H116V2.85438H119.984C120.734 2.85438 121.426 2.98553 122.056 3.24784C122.687 3.50985 123.23 3.87316 123.688 4.33775C124.145 4.80234 124.502 5.36022 124.758 6.01201C124.998 6.625 125.12 7.28818 125.135 8H128Z" fill="#FF0000"/>
</svg>
