<svg width="273" height="273" viewBox="0 0 273 273" fill="none" xmlns="http://www.w3.org/2000/svg">
<path fill-rule="evenodd" clip-rule="evenodd" d="M272.415 268.247C272.024 269.229 271.477 270.071 270.771 270.776C270.066 271.479 269.221 272.027 268.237 272.417C267.255 272.806 266.171 273 264.984 273H261V270.146H264.984C265.734 270.146 266.426 270.015 267.056 269.753C267.687 269.491 268.23 269.127 268.688 268.663C269.145 268.198 269.502 267.64 269.758 266.989C269.998 266.376 270.12 265.712 270.135 265H273C273 266.183 272.804 267.266 272.415 268.247Z" fill="#FF0000"/>
<path d="M0 265C0 266.183 0.195539 267.266 0.585073 268.247C0.97615 269.229 1.52329 270.071 2.22926 270.776C2.934 271.479 3.77907 272.027 4.76231 272.417C5.74463 272.806 6.82934 273 8.01522 273H12V270.146H8.01522C7.26545 270.146 6.57397 270.015 5.94356 269.753C5.31346 269.491 4.77002 269.127 4.31171 268.663C3.85494 268.198 3.49841 267.64 3.2418 266.989C3.00154 266.376 2.87941 265.712 2.86491 265H0Z" fill="#FF0000"/>
<path d="M2.22926 2.22506C1.52329 2.9298 0.97615 3.77218 0.585073 4.75339C0.195539 5.73523 0 6.81742 0 8H2.86491C2.87941 7.28818 3.00154 6.625 3.2418 6.01201C3.49841 5.36022 3.85494 4.80234 4.31171 4.33775C4.77002 3.87316 5.31346 3.50985 5.94356 3.24784C6.57397 2.98553 7.26545 2.85438 8.01522 2.85438H12V0H8.01522C6.82934 0 5.74463 0.194579 4.76231 0.583434C3.77907 0.97352 2.934 1.52093 2.22926 2.22506Z" fill="#FF0000"/>
<path d="M273 8C273 6.81742 272.804 5.73523 272.415 4.75339C272.024 3.77218 271.477 2.9298 270.771 2.22506C270.066 1.52093 269.221 0.97352 268.237 0.583434C267.255 0.194579 266.171 0 264.984 0H261V2.85438H264.984C265.734 2.85438 266.426 2.98553 267.056 3.24784C267.687 3.50985 268.23 3.87316 268.688 4.33775C269.145 4.80234 269.502 5.36022 269.758 6.01201C269.998 6.625 270.12 7.28818 270.135 8H273Z" fill="#FF0000"/>
</svg>
