<svg xmlns="http://www.w3.org/2000/svg" width="24" height="24" fill="none" viewBox="0 0 24 24">
    <path stroke="#BEBFBE" stroke-width="1.8" d="M16.859 10.917h.271M19.44 3c2.31 0 2.31 2.361 2.31 2.361s0 0 0 0v.936c0 2.551-2.068 4.62-4.62 4.62v0M19.44 3c-1.708 0-2.167 1.033-2.282 1.733-.068.414-.028.839-.028 1.26v4.924M19.44 3H5.31C3 3 3 5.361 3 5.361s0 0 0 0v14.606c0 .652.791.974 1.247.509v0c.285-.292.754-.292 1.039 0l.532.543c.392.401 1.037.401 1.43 0l.336-.344c.392-.4 1.038-.4 1.43 0l.336.344c.393.401 1.038.401 1.43 0l.337-.344c.392-.4 1.037-.4 1.43 0l.336.344c.392.401 1.037.401 1.43 0l.531-.543c.286-.292.755-.292 1.04 0v0c.455.465 1.246.143 1.246-.509v-9.05M6 9.11h8.25M6 12.861h8.25"/>
</svg>
