<svg width="24" height="24" viewBox="0 0 24 24" fill="none" xmlns="http://www.w3.org/2000/svg">
<path fill-rule="evenodd" clip-rule="evenodd" d="M22.2 9.23333H1.8V10.4333H22.2V9.23333ZM22.2 7.43333H1.8V6C1.8 5.88954 1.88954 5.8 2 5.8H22C22.1105 5.8 22.2 5.88954 22.2 6V7.43333ZM24 6C24 4.89543 23.1046 4 22 4H2C0.895431 4 0 4.89543 0 6V18C0 19.1046 0.89543 20 2 20H22C23.1046 20 24 19.1046 24 18V6ZM22.2 12.2333H1.8V18C1.8 18.1105 1.88954 18.2 2 18.2H22C22.1105 18.2 22.2 18.1105 22.2 18V12.2333Z" fill="#BEBFBE"/>
<circle cx="18" cy="15.75" r="0.9" stroke="#BEBFBE" stroke-width="1.2"/>
<circle cx="19.5" cy="15.75" r="0.9" stroke="#BEBFBE" stroke-width="1.2"/>
</svg>
